<?xml version="1.0" encoding="utf-8"?>
<!-- Generator: Adobe Illustrator 16.0.4, SVG Export Plug-In . SVG Version: 6.00 Build 0)  -->
<!DOCTYPE svg PUBLIC "-//W3C//DTD SVG 1.1//EN" "http://www.w3.org/Graphics/SVG/1.1/DTD/svg11.dtd">
<svg version="1.1" id="Capa_1" xmlns="http://www.w3.org/2000/svg" xmlns:xlink="http://www.w3.org/1999/xlink" x="0px" y="0px"
	 width="512px" height="512px" viewBox="0 0 512 512" enable-background="new 0 0 512 512" xml:space="preserve">
<path d="M345.11,235.841c-30.334-14.326-68.986-17.21-97.417,3.024c34.571-3.302,72.479,2.419,97.553,28.562
	c24-27.54,62.057-32.703,96.479-29.866C412.981,218.489,375.115,221.049,345.11,235.841z M332.824,302.875
	c-34.189-0.789-67.217,11.586-95.55,30.052c-53.588-22.794-121.368-18.562-167.001,19.491c13.165-0.467,26.003-3.723,39.028-5.396
	c47.591-4.744,98.294,7.071,134.256,39.912c14.886-21.771,35.822-39.121,59.826-49.961c31.537-15.26,67.08-16.842,101.41-17.26
	C383.949,305.389,357.485,302.736,332.824,302.875z M451.716,99.715l-71.432-71.431C364.728,12.728,334,0,312,0H72C50,0,32,18,32,40
	v432c0,22,18,40,40,40h368c22,0,40-18,40-40V168C480,146,467.272,115.271,451.716,99.715z M429.089,122.343
	c1.565,1.565,3.125,3.487,4.64,5.657H352V46.272c2.17,1.515,4.092,3.075,5.657,4.64L429.089,122.343z M448,472c0,4.336-3.664,8-8,8
	H72c-4.336,0-8-3.664-8-8V40c0-4.336,3.664-8,8-8h240c2.416,0,5.127,0.305,8,0.852V160h127.148c0.547,2.873,0.852,5.583,0.852,8V472
	z"/>
</svg>
